<mxfile host="Electron" agent="Mozilla/5.0 (Windows NT 10.0; Win64; x64) AppleWebKit/537.36 (KHTML, like Gecko) draw.io/26.2.2 Chrome/134.0.6998.178 Electron/35.1.2 Safari/537.36" version="26.2.2">
  <diagram name="Página-1" id="y9sjLF-I0lAovRhFKU5r">
    <mxGraphModel dx="1212" dy="872" grid="1" gridSize="10" guides="1" tooltips="1" connect="1" arrows="1" fold="1" page="1" pageScale="1" pageWidth="4400" pageHeight="4400" math="0" shadow="0">
      <root>
        <mxCell id="0" />
        <mxCell id="1" parent="0" />
        <mxCell id="Q5biwwvEiw_lb612Y_QM-18" value="" style="rounded=0;whiteSpace=wrap;html=1;" vertex="1" parent="1">
          <mxGeometry x="130" y="830" width="1000" height="310" as="geometry" />
        </mxCell>
        <mxCell id="Q5biwwvEiw_lb612Y_QM-148" value="" style="rounded=0;whiteSpace=wrap;html=1;" vertex="1" parent="1">
          <mxGeometry x="882.5" y="840" width="227.5" height="50" as="geometry" />
        </mxCell>
        <mxCell id="Q5biwwvEiw_lb612Y_QM-8" value="" style="rounded=0;whiteSpace=wrap;html=1;" vertex="1" parent="1">
          <mxGeometry x="360" y="180" width="110" height="40" as="geometry" />
        </mxCell>
        <mxCell id="Q5biwwvEiw_lb612Y_QM-2" value="" style="whiteSpace=wrap;html=1;aspect=fixed;" vertex="1" parent="1">
          <mxGeometry x="170" y="160" width="480" height="480" as="geometry" />
        </mxCell>
        <mxCell id="Q5biwwvEiw_lb612Y_QM-3" value="" style="rounded=0;whiteSpace=wrap;html=1;" vertex="1" parent="1">
          <mxGeometry x="190" y="240" width="430" height="380" as="geometry" />
        </mxCell>
        <mxCell id="Q5biwwvEiw_lb612Y_QM-4" value="" style="endArrow=none;html=1;rounded=0;exitX=0.171;exitY=0.38;exitDx=0;exitDy=0;exitPerimeter=0;" edge="1" parent="1">
          <mxGeometry width="50" height="50" relative="1" as="geometry">
            <mxPoint x="219.78199999999993" y="309.9000000000001" as="sourcePoint" />
            <mxPoint x="370" y="310" as="targetPoint" />
            <Array as="points">
              <mxPoint x="590" y="310" />
            </Array>
          </mxGeometry>
        </mxCell>
        <mxCell id="Q5biwwvEiw_lb612Y_QM-5" value="&lt;font style=&quot;font-size: 15px;&quot;&gt;Iniciar Sesion&lt;/font&gt;" style="text;html=1;align=center;verticalAlign=middle;whiteSpace=wrap;rounded=0;fontFamily=Verdana;" vertex="1" parent="1">
          <mxGeometry x="280" y="270" width="60" height="30" as="geometry" />
        </mxCell>
        <mxCell id="Q5biwwvEiw_lb612Y_QM-6" value="&lt;font style=&quot;font-size: 15px;&quot;&gt;Registrarte&lt;/font&gt;" style="text;html=1;align=center;verticalAlign=middle;whiteSpace=wrap;rounded=0;fontFamily=Verdana;" vertex="1" parent="1">
          <mxGeometry x="470" y="270" width="60" height="30" as="geometry" />
        </mxCell>
        <mxCell id="Q5biwwvEiw_lb612Y_QM-7" value="&lt;font style=&quot;font-size: 15px;&quot;&gt;Logo&lt;/font&gt;" style="text;html=1;align=center;verticalAlign=middle;whiteSpace=wrap;rounded=0;fontFamily=Verdana;" vertex="1" parent="1">
          <mxGeometry x="375" y="190" width="60" height="30" as="geometry" />
        </mxCell>
        <mxCell id="Q5biwwvEiw_lb612Y_QM-9" value="" style="rounded=0;whiteSpace=wrap;html=1;fillColor=none;" vertex="1" parent="1">
          <mxGeometry x="370" y="190" width="70" height="30" as="geometry" />
        </mxCell>
        <mxCell id="Q5biwwvEiw_lb612Y_QM-10" value="&lt;span style=&quot;font-size: 15px;&quot;&gt;Dirección de correo&lt;/span&gt;" style="text;html=1;align=center;verticalAlign=middle;whiteSpace=wrap;rounded=0;fontFamily=Verdana;" vertex="1" parent="1">
          <mxGeometry x="220" y="340" width="160" height="30" as="geometry" />
        </mxCell>
        <mxCell id="Q5biwwvEiw_lb612Y_QM-11" value="" style="rounded=0;whiteSpace=wrap;html=1;" vertex="1" parent="1">
          <mxGeometry x="220" y="370" width="370" height="50" as="geometry" />
        </mxCell>
        <mxCell id="Q5biwwvEiw_lb612Y_QM-12" value="&lt;span style=&quot;font-size: 15px;&quot;&gt;Contraseña&lt;/span&gt;" style="text;html=1;align=center;verticalAlign=middle;whiteSpace=wrap;rounded=0;fontFamily=Verdana;" vertex="1" parent="1">
          <mxGeometry x="220" y="440" width="100" height="30" as="geometry" />
        </mxCell>
        <mxCell id="Q5biwwvEiw_lb612Y_QM-13" value="" style="rounded=0;whiteSpace=wrap;html=1;" vertex="1" parent="1">
          <mxGeometry x="220" y="470" width="370" height="50" as="geometry" />
        </mxCell>
        <mxCell id="Q5biwwvEiw_lb612Y_QM-15" value="" style="rounded=0;whiteSpace=wrap;html=1;fillColor=none;" vertex="1" parent="1">
          <mxGeometry x="230" y="255" width="170" height="55" as="geometry" />
        </mxCell>
        <mxCell id="Q5biwwvEiw_lb612Y_QM-16" value="" style="rounded=0;whiteSpace=wrap;html=1;fillColor=none;" vertex="1" parent="1">
          <mxGeometry x="415" y="255" width="170" height="55" as="geometry" />
        </mxCell>
        <mxCell id="Q5biwwvEiw_lb612Y_QM-22" value="______________________________________________________________________________________________________________________________________________" style="text;html=1;align=center;verticalAlign=middle;whiteSpace=wrap;rounded=0;" vertex="1" parent="1">
          <mxGeometry x="590" y="880" width="60" height="30" as="geometry" />
        </mxCell>
        <mxCell id="Q5biwwvEiw_lb612Y_QM-24" value="" style="rounded=0;whiteSpace=wrap;html=1;fillColor=none;" vertex="1" parent="1">
          <mxGeometry x="150" y="850" width="70" height="30" as="geometry" />
        </mxCell>
        <mxCell id="Q5biwwvEiw_lb612Y_QM-26" value="&lt;span style=&quot;font-size: 15px;&quot;&gt;Logo&lt;/span&gt;" style="text;html=1;align=center;verticalAlign=middle;whiteSpace=wrap;rounded=0;fontFamily=Verdana;" vertex="1" parent="1">
          <mxGeometry x="150" y="850" width="70" height="30" as="geometry" />
        </mxCell>
        <mxCell id="Q5biwwvEiw_lb612Y_QM-51" value="" style="rounded=0;whiteSpace=wrap;html=1;fillColor=none;" vertex="1" parent="1">
          <mxGeometry x="153.75" y="920" width="965" height="190" as="geometry" />
        </mxCell>
        <mxCell id="Q5biwwvEiw_lb612Y_QM-55" value="" style="verticalLabelPosition=bottom;verticalAlign=top;html=1;shape=mxgraph.basic.patternFillRect;fillStyle=diag;step=5;fillStrokeWidth=0.2;fillStrokeColor=#dddddd;" vertex="1" parent="1">
          <mxGeometry x="170" y="940" width="768.75" height="20" as="geometry" />
        </mxCell>
        <mxCell id="Q5biwwvEiw_lb612Y_QM-56" value="" style="verticalLabelPosition=bottom;verticalAlign=top;html=1;shape=mxgraph.basic.patternFillRect;fillStyle=diag;step=5;fillStrokeWidth=0.2;fillStrokeColor=#dddddd;" vertex="1" parent="1">
          <mxGeometry x="1020" y="940" width="80" height="20" as="geometry" />
        </mxCell>
        <mxCell id="Q5biwwvEiw_lb612Y_QM-57" value="&lt;span style=&quot;font-size: 15px;&quot;&gt;Nombre Tarea&lt;/span&gt;" style="text;html=1;align=center;verticalAlign=middle;whiteSpace=wrap;rounded=0;fontFamily=Verdana;" vertex="1" parent="1">
          <mxGeometry x="493.75" y="935" width="185" height="30" as="geometry" />
        </mxCell>
        <mxCell id="Q5biwwvEiw_lb612Y_QM-58" value="&lt;span style=&quot;font-size: 15px;&quot;&gt;Fecha&lt;/span&gt;" style="text;html=1;align=center;verticalAlign=middle;whiteSpace=wrap;rounded=0;fontFamily=Verdana;" vertex="1" parent="1">
          <mxGeometry x="982.5" y="935" width="127.5" height="30" as="geometry" />
        </mxCell>
        <mxCell id="Q5biwwvEiw_lb612Y_QM-59" value="" style="verticalLabelPosition=bottom;verticalAlign=top;html=1;shape=mxgraph.basic.patternFillRect;fillStyle=diag;step=5;fillStrokeWidth=0.2;fillStrokeColor=#dddddd;" vertex="1" parent="1">
          <mxGeometry x="170" y="995" width="768.75" height="20" as="geometry" />
        </mxCell>
        <mxCell id="Q5biwwvEiw_lb612Y_QM-62" value="&lt;span style=&quot;font-size: 15px;&quot;&gt;Nombre Tarea&lt;/span&gt;" style="text;html=1;align=center;verticalAlign=middle;whiteSpace=wrap;rounded=0;fontFamily=Verdana;" vertex="1" parent="1">
          <mxGeometry x="483.75" y="990" width="185" height="30" as="geometry" />
        </mxCell>
        <mxCell id="Q5biwwvEiw_lb612Y_QM-63" value="" style="verticalLabelPosition=bottom;verticalAlign=top;html=1;shape=mxgraph.basic.patternFillRect;fillStyle=diag;step=5;fillStrokeWidth=0.2;fillStrokeColor=#dddddd;" vertex="1" parent="1">
          <mxGeometry x="170" y="1055" width="766.75" height="20" as="geometry" />
        </mxCell>
        <mxCell id="Q5biwwvEiw_lb612Y_QM-66" value="&lt;span style=&quot;font-size: 15px;&quot;&gt;Nombre Tarea&lt;/span&gt;" style="text;html=1;align=center;verticalAlign=middle;whiteSpace=wrap;rounded=0;fontFamily=Verdana;" vertex="1" parent="1">
          <mxGeometry x="483.75" y="1050" width="185" height="30" as="geometry" />
        </mxCell>
        <mxCell id="Q5biwwvEiw_lb612Y_QM-71" value="TAG" style="rounded=0;whiteSpace=wrap;html=1;" vertex="1" parent="1">
          <mxGeometry x="958.75" y="940" width="50" height="30" as="geometry" />
        </mxCell>
        <mxCell id="Q5biwwvEiw_lb612Y_QM-72" value="TAG" style="rounded=0;whiteSpace=wrap;html=1;" vertex="1" parent="1">
          <mxGeometry x="958.75" y="1000" width="50" height="30" as="geometry" />
        </mxCell>
        <mxCell id="Q5biwwvEiw_lb612Y_QM-75" value="TAG" style="rounded=0;whiteSpace=wrap;html=1;" vertex="1" parent="1">
          <mxGeometry x="958.75" y="1055" width="50" height="30" as="geometry" />
        </mxCell>
        <mxCell id="Q5biwwvEiw_lb612Y_QM-82" value="" style="rounded=0;whiteSpace=wrap;html=1;" vertex="1" parent="1">
          <mxGeometry x="1090" y="180" width="110" height="40" as="geometry" />
        </mxCell>
        <mxCell id="Q5biwwvEiw_lb612Y_QM-83" value="" style="whiteSpace=wrap;html=1;aspect=fixed;" vertex="1" parent="1">
          <mxGeometry x="900" y="160" width="480" height="480" as="geometry" />
        </mxCell>
        <mxCell id="Q5biwwvEiw_lb612Y_QM-84" value="" style="rounded=0;whiteSpace=wrap;html=1;" vertex="1" parent="1">
          <mxGeometry x="920" y="180" width="430" height="440" as="geometry" />
        </mxCell>
        <mxCell id="Q5biwwvEiw_lb612Y_QM-90" value="&lt;span style=&quot;font-size: 15px;&quot;&gt;Materia&amp;nbsp; &amp;nbsp; &amp;nbsp; &amp;nbsp; &amp;nbsp;&lt;/span&gt;" style="text;html=1;align=center;verticalAlign=middle;whiteSpace=wrap;rounded=0;fontFamily=Verdana;" vertex="1" parent="1">
          <mxGeometry x="950" y="340" width="160" height="30" as="geometry" />
        </mxCell>
        <mxCell id="Q5biwwvEiw_lb612Y_QM-91" value="" style="rounded=0;whiteSpace=wrap;html=1;" vertex="1" parent="1">
          <mxGeometry x="950" y="370" width="370" height="50" as="geometry" />
        </mxCell>
        <mxCell id="Q5biwwvEiw_lb612Y_QM-92" value="&lt;span style=&quot;font-size: 15px;&quot;&gt;Fecha Entrega&lt;/span&gt;" style="text;html=1;align=center;verticalAlign=middle;whiteSpace=wrap;rounded=0;fontFamily=Verdana;" vertex="1" parent="1">
          <mxGeometry x="950" y="452" width="140" height="30" as="geometry" />
        </mxCell>
        <mxCell id="Q5biwwvEiw_lb612Y_QM-93" value="" style="rounded=0;whiteSpace=wrap;html=1;" vertex="1" parent="1">
          <mxGeometry x="950" y="482" width="370" height="50" as="geometry" />
        </mxCell>
        <mxCell id="Q5biwwvEiw_lb612Y_QM-96" value="&lt;font style=&quot;font-size: 18px;&quot;&gt;Crear Nueva Tarea&lt;/font&gt;" style="text;html=1;align=center;verticalAlign=middle;whiteSpace=wrap;rounded=0;fontFamily=Verdana;" vertex="1" parent="1">
          <mxGeometry x="920" y="190" width="190" height="30" as="geometry" />
        </mxCell>
        <mxCell id="Q5biwwvEiw_lb612Y_QM-97" value="&lt;span style=&quot;font-size: 15px;&quot;&gt;Nombre Tarea&lt;/span&gt;" style="text;html=1;align=center;verticalAlign=middle;whiteSpace=wrap;rounded=0;fontFamily=Verdana;" vertex="1" parent="1">
          <mxGeometry x="948" y="255" width="160" height="30" as="geometry" />
        </mxCell>
        <mxCell id="Q5biwwvEiw_lb612Y_QM-98" value="" style="rounded=0;whiteSpace=wrap;html=1;" vertex="1" parent="1">
          <mxGeometry x="948" y="285" width="370" height="50" as="geometry" />
        </mxCell>
        <mxCell id="Q5biwwvEiw_lb612Y_QM-99" value="&lt;span style=&quot;font-size: 15px;&quot;&gt;&lt;u&gt;Agregar Nueva Materia&lt;/u&gt;&lt;/span&gt;" style="text;html=1;align=center;verticalAlign=middle;whiteSpace=wrap;rounded=0;fontFamily=Verdana;" vertex="1" parent="1">
          <mxGeometry x="970" y="415" width="330" height="30" as="geometry" />
        </mxCell>
        <mxCell id="Q5biwwvEiw_lb612Y_QM-100" value="" style="rounded=0;whiteSpace=wrap;html=1;" vertex="1" parent="1">
          <mxGeometry x="1100" y="570" width="112" height="40" as="geometry" />
        </mxCell>
        <mxCell id="Q5biwwvEiw_lb612Y_QM-101" value="&lt;span style=&quot;font-size: 15px;&quot;&gt;Cancelar&lt;/span&gt;" style="text;html=1;align=center;verticalAlign=middle;whiteSpace=wrap;rounded=0;fontFamily=Verdana;" vertex="1" parent="1">
          <mxGeometry x="1102" y="575" width="110" height="30" as="geometry" />
        </mxCell>
        <mxCell id="Q5biwwvEiw_lb612Y_QM-108" value="" style="rounded=0;whiteSpace=wrap;html=1;" vertex="1" parent="1">
          <mxGeometry x="1230" y="570" width="112" height="40" as="geometry" />
        </mxCell>
        <mxCell id="Q5biwwvEiw_lb612Y_QM-109" value="&lt;span style=&quot;font-size: 15px;&quot;&gt;Guardar&lt;/span&gt;" style="text;html=1;align=center;verticalAlign=middle;whiteSpace=wrap;rounded=0;fontFamily=Verdana;" vertex="1" parent="1">
          <mxGeometry x="1231" y="580" width="110" height="30" as="geometry" />
        </mxCell>
        <mxCell id="Q5biwwvEiw_lb612Y_QM-112" value="" style="rounded=0;whiteSpace=wrap;html=1;" vertex="1" parent="1">
          <mxGeometry x="1680" y="175" width="110" height="40" as="geometry" />
        </mxCell>
        <mxCell id="Q5biwwvEiw_lb612Y_QM-113" value="" style="whiteSpace=wrap;html=1;aspect=fixed;" vertex="1" parent="1">
          <mxGeometry x="1490" y="155" width="480" height="480" as="geometry" />
        </mxCell>
        <mxCell id="Q5biwwvEiw_lb612Y_QM-114" value="" style="rounded=0;whiteSpace=wrap;html=1;" vertex="1" parent="1">
          <mxGeometry x="1510" y="175" width="430" height="440" as="geometry" />
        </mxCell>
        <mxCell id="Q5biwwvEiw_lb612Y_QM-115" value="&lt;span style=&quot;font-size: 15px;&quot;&gt;Materia&amp;nbsp; &amp;nbsp; &amp;nbsp; &amp;nbsp; &amp;nbsp;&lt;/span&gt;" style="text;html=1;align=center;verticalAlign=middle;whiteSpace=wrap;rounded=0;fontFamily=Verdana;" vertex="1" parent="1">
          <mxGeometry x="1540" y="335" width="160" height="30" as="geometry" />
        </mxCell>
        <mxCell id="Q5biwwvEiw_lb612Y_QM-116" value="" style="rounded=0;whiteSpace=wrap;html=1;" vertex="1" parent="1">
          <mxGeometry x="1540" y="365" width="370" height="50" as="geometry" />
        </mxCell>
        <mxCell id="Q5biwwvEiw_lb612Y_QM-117" value="&lt;span style=&quot;font-size: 15px;&quot;&gt;Fecha Entrega&lt;/span&gt;" style="text;html=1;align=center;verticalAlign=middle;whiteSpace=wrap;rounded=0;fontFamily=Verdana;" vertex="1" parent="1">
          <mxGeometry x="1540" y="447" width="140" height="30" as="geometry" />
        </mxCell>
        <mxCell id="Q5biwwvEiw_lb612Y_QM-118" value="" style="rounded=0;whiteSpace=wrap;html=1;" vertex="1" parent="1">
          <mxGeometry x="1540" y="477" width="370" height="50" as="geometry" />
        </mxCell>
        <mxCell id="Q5biwwvEiw_lb612Y_QM-119" value="&lt;font style=&quot;font-size: 18px;&quot;&gt;Editar Tarea&lt;/font&gt;" style="text;html=1;align=center;verticalAlign=middle;whiteSpace=wrap;rounded=0;fontFamily=Verdana;" vertex="1" parent="1">
          <mxGeometry x="1510" y="185" width="190" height="30" as="geometry" />
        </mxCell>
        <mxCell id="Q5biwwvEiw_lb612Y_QM-120" value="&lt;span style=&quot;font-size: 15px;&quot;&gt;Nombre Tarea&lt;/span&gt;" style="text;html=1;align=center;verticalAlign=middle;whiteSpace=wrap;rounded=0;fontFamily=Verdana;" vertex="1" parent="1">
          <mxGeometry x="1538" y="250" width="160" height="30" as="geometry" />
        </mxCell>
        <mxCell id="Q5biwwvEiw_lb612Y_QM-121" value="" style="rounded=0;whiteSpace=wrap;html=1;" vertex="1" parent="1">
          <mxGeometry x="1538" y="280" width="370" height="50" as="geometry" />
        </mxCell>
        <mxCell id="Q5biwwvEiw_lb612Y_QM-123" value="" style="rounded=0;whiteSpace=wrap;html=1;" vertex="1" parent="1">
          <mxGeometry x="1690" y="565" width="112" height="40" as="geometry" />
        </mxCell>
        <mxCell id="Q5biwwvEiw_lb612Y_QM-124" value="&lt;span style=&quot;font-size: 15px;&quot;&gt;Cancelar&lt;/span&gt;" style="text;html=1;align=center;verticalAlign=middle;whiteSpace=wrap;rounded=0;fontFamily=Verdana;" vertex="1" parent="1">
          <mxGeometry x="1692" y="570" width="110" height="30" as="geometry" />
        </mxCell>
        <mxCell id="Q5biwwvEiw_lb612Y_QM-125" value="" style="rounded=0;whiteSpace=wrap;html=1;" vertex="1" parent="1">
          <mxGeometry x="1820" y="565" width="112" height="40" as="geometry" />
        </mxCell>
        <mxCell id="Q5biwwvEiw_lb612Y_QM-126" value="&lt;span style=&quot;font-size: 15px;&quot;&gt;Guardar&lt;/span&gt;" style="text;html=1;align=center;verticalAlign=middle;whiteSpace=wrap;rounded=0;fontFamily=Verdana;" vertex="1" parent="1">
          <mxGeometry x="1821" y="575" width="110" height="30" as="geometry" />
        </mxCell>
        <mxCell id="Q5biwwvEiw_lb612Y_QM-127" value="" style="rounded=0;whiteSpace=wrap;html=1;" vertex="1" parent="1">
          <mxGeometry x="2260" y="180" width="110" height="40" as="geometry" />
        </mxCell>
        <mxCell id="Q5biwwvEiw_lb612Y_QM-129" value="" style="rounded=0;whiteSpace=wrap;html=1;" vertex="1" parent="1">
          <mxGeometry x="2090" y="180" width="430" height="240" as="geometry" />
        </mxCell>
        <mxCell id="Q5biwwvEiw_lb612Y_QM-134" value="&lt;font style=&quot;font-size: 18px;&quot;&gt;Agregar Materia&lt;/font&gt;" style="text;html=1;align=center;verticalAlign=middle;whiteSpace=wrap;rounded=0;fontFamily=Verdana;" vertex="1" parent="1">
          <mxGeometry x="2090" y="190" width="190" height="30" as="geometry" />
        </mxCell>
        <mxCell id="Q5biwwvEiw_lb612Y_QM-135" value="&lt;span style=&quot;font-size: 15px;&quot;&gt;Nombre de la Materia&lt;/span&gt;" style="text;html=1;align=center;verticalAlign=middle;whiteSpace=wrap;rounded=0;fontFamily=Verdana;" vertex="1" parent="1">
          <mxGeometry x="2118" y="255" width="232" height="30" as="geometry" />
        </mxCell>
        <mxCell id="Q5biwwvEiw_lb612Y_QM-136" value="" style="rounded=0;whiteSpace=wrap;html=1;" vertex="1" parent="1">
          <mxGeometry x="2118" y="285" width="370" height="50" as="geometry" />
        </mxCell>
        <mxCell id="Q5biwwvEiw_lb612Y_QM-137" value="" style="rounded=0;whiteSpace=wrap;html=1;" vertex="1" parent="1">
          <mxGeometry x="2272" y="355" width="112" height="40" as="geometry" />
        </mxCell>
        <mxCell id="Q5biwwvEiw_lb612Y_QM-138" value="&lt;span style=&quot;font-size: 15px;&quot;&gt;Cancelar&lt;/span&gt;" style="text;html=1;align=center;verticalAlign=middle;whiteSpace=wrap;rounded=0;fontFamily=Verdana;" vertex="1" parent="1">
          <mxGeometry x="2272" y="360" width="110" height="30" as="geometry" />
        </mxCell>
        <mxCell id="Q5biwwvEiw_lb612Y_QM-139" value="" style="rounded=0;whiteSpace=wrap;html=1;" vertex="1" parent="1">
          <mxGeometry x="2390" y="355" width="112" height="40" as="geometry" />
        </mxCell>
        <mxCell id="Q5biwwvEiw_lb612Y_QM-140" value="&lt;span style=&quot;font-size: 15px;&quot;&gt;Guardar&lt;/span&gt;" style="text;html=1;align=center;verticalAlign=middle;whiteSpace=wrap;rounded=0;fontFamily=Verdana;" vertex="1" parent="1">
          <mxGeometry x="2391" y="365" width="110" height="30" as="geometry" />
        </mxCell>
        <mxCell id="Q5biwwvEiw_lb612Y_QM-141" value="" style="verticalLabelPosition=bottom;verticalAlign=top;html=1;shape=mxgraph.basic.patternFillRect;fillStyle=diag;step=5;fillStrokeWidth=0.2;fillStrokeColor=#dddddd;" vertex="1" parent="1">
          <mxGeometry x="1020" y="1005" width="80" height="20" as="geometry" />
        </mxCell>
        <mxCell id="Q5biwwvEiw_lb612Y_QM-142" value="&lt;span style=&quot;font-size: 15px;&quot;&gt;Fecha&lt;/span&gt;" style="text;html=1;align=center;verticalAlign=middle;whiteSpace=wrap;rounded=0;fontFamily=Verdana;" vertex="1" parent="1">
          <mxGeometry x="982.5" y="1000" width="127.5" height="30" as="geometry" />
        </mxCell>
        <mxCell id="Q5biwwvEiw_lb612Y_QM-143" value="" style="verticalLabelPosition=bottom;verticalAlign=top;html=1;shape=mxgraph.basic.patternFillRect;fillStyle=diag;step=5;fillStrokeWidth=0.2;fillStrokeColor=#dddddd;" vertex="1" parent="1">
          <mxGeometry x="1018" y="1060" width="80" height="20" as="geometry" />
        </mxCell>
        <mxCell id="Q5biwwvEiw_lb612Y_QM-144" value="&lt;span style=&quot;font-size: 15px;&quot;&gt;Fecha&lt;/span&gt;" style="text;html=1;align=center;verticalAlign=middle;whiteSpace=wrap;rounded=0;fontFamily=Verdana;" vertex="1" parent="1">
          <mxGeometry x="980.5" y="1055" width="127.5" height="30" as="geometry" />
        </mxCell>
        <mxCell id="Q5biwwvEiw_lb612Y_QM-147" value="&lt;span style=&quot;font-size: 15px;&quot;&gt;Volver Dashboard&lt;/span&gt;" style="text;html=1;align=center;verticalAlign=middle;whiteSpace=wrap;rounded=0;fontFamily=Verdana;" vertex="1" parent="1">
          <mxGeometry x="926.25" y="850" width="160" height="30" as="geometry" />
        </mxCell>
      </root>
    </mxGraphModel>
  </diagram>
</mxfile>
